<?xml version="1.0" encoding="UTF-8" standalone="no"?>
<svg
   xmlns:dc="http://purl.org/dc/elements/1.1/"
   xmlns:cc="http://creativecommons.org/ns#"
   xmlns:rdf="http://www.w3.org/1999/02/22-rdf-syntax-ns#"
   xmlns:svg="http://www.w3.org/2000/svg"
   xmlns="http://www.w3.org/2000/svg"
   xmlns:sodipodi="http://sodipodi.sourceforge.net/DTD/sodipodi-0.dtd"
   xmlns:inkscape="http://www.inkscape.org/namespaces/inkscape"
   height="418pt"
   viewBox="0 -9 418.93516 418"
   width="418pt"
   version="1.1"
   id="svg10"
   sodipodi:docname="growth.svg"
   inkscape:version="0.92.4 (5da689c313, 2019-01-14)">
  <metadata
     id="metadata16">
    <rdf:RDF>
      <cc:Work
         rdf:about="">
        <dc:format>image/svg+xml</dc:format>
        <dc:type
           rdf:resource="http://purl.org/dc/dcmitype/StillImage" />
      </cc:Work>
    </rdf:RDF>
  </metadata>
  <defs
     id="defs14" />
  <sodipodi:namedview
     pagecolor="#ffffff"
     bordercolor="#666666"
     borderopacity="1"
     objecttolerance="10"
     gridtolerance="10"
     guidetolerance="10"
     inkscape:pageopacity="0"
     inkscape:pageshadow="2"
     inkscape:window-width="1680"
     inkscape:window-height="997"
     id="namedview12"
     showgrid="false"
     inkscape:zoom="0.42344498"
     inkscape:cx="237.33898"
     inkscape:cy="278.66667"
     inkscape:window-x="-8"
     inkscape:window-y="22"
     inkscape:window-maximized="1"
     inkscape:current-layer="svg10" />
  <path
     style="stroke-width:1.33035696"
     d="M 149.4707 13.216797 C 143.46575 13.218376 139.59796 13.426851 138.86133 13.46875 C 134.22067 13.744175 130.54053 17.474575 130.32227 22.115234 C 127.75509 77.626457 140.39356 115.99365 167.89453 136.14648 C 184.10826 148.02096 202.68642 151.47266 218.79102 151.47266 C 232.45906 151.47266 244.29312 148.99587 251.42969 147.07812 C 285.80029 209.51275 286.02047 298.39023 283.33398 344.09375 C 282.30873 352.02121 281.5225 360.33065 280.97266 368.99219 C 263.34348 368.27763 246.454 363.19562 231.88672 354.16016 C 210.19047 340.70068 175.20748 322.63009 131.75781 312.97461 C 54.503568 295.7839 3.9282217 361.85592 1.8183594 364.67773 C 0.63870657 366.24714 0 368.15869 0 370.12305 L 0 458.63867 C -2.3684758e-15 463.30531 3.5338308 467.21327 8.1796875 467.67578 L 36.398438 470.49805 C 70.135459 473.87071 103.00314 482.4352 134.08984 495.95703 L 220.01758 533.31055 C 237.98779 541.12639 257.3937 545.03906 276.80859 545.03906 C 294.79959 545.03906 312.79423 541.68153 329.65234 534.94141 L 398.15625 507.53906 L 409.93164 504.59961 C 445.20169 495.7808 474.99889 470.64822 489.63281 437.37891 L 556.56641 285.26172 C 557.79803 282.4555 557.53401 279.2078 555.85547 276.64062 C 554.18213 274.07345 551.32321 272.52344 548.25195 272.52344 L 542.72266 272.52344 C 518.14743 272.52344 494.67428 284.25771 480.32617 303.41797 L 406.32031 388.68164 C 399.03973 376.92669 386.02155 369.08984 371.21094 369.08984 L 299.55469 369.08984 C 300.15343 363.64945 300.93867 355.5497 301.58594 344.82617 C 306.16049 311.09695 314.98918 284.4742 325.00586 263.78516 C 336.74459 268.23358 347.65633 270.4707 357.68945 270.4707 C 369.36126 270.4707 379.84877 267.45721 389.07812 261.42383 C 432.48622 233.08099 428.73853 147.95417 428.55664 144.34766 C 428.32799 139.7018 424.63351 135.98511 419.99805 135.73047 C 369.17425 132.89826 333.93007 144.20198 315.18555 169.29688 C 289.39429 203.8186 305.62266 250.50115 306.32422 252.4707 C 306.77153 253.71553 307.49069 254.83098 308.40234 255.76172 C 306.00073 260.75075 303.66537 266.03745 301.43945 271.66211 C 300.90939 263.87225 300.19904 255.87378 299.24805 247.76172 C 293.9847 202.75325 282.66283 165.10883 265.75586 135.63086 C 280.51118 103.1275 280.96898 76.105883 267.06836 55.25 C 241.64574 17.088632 175.49218 13.209952 149.4707 13.216797 z M 148.19922 31.339844 C 176.74993 31.002058 232.83315 36.613705 251.95703 65.320312 C 260.69637 78.438148 261.25493 95.844602 253.66406 117.20117 C 238.38327 96.837931 219.69023 81.669545 197.8125 72.097656 C 193.22381 70.091728 187.85554 72.186698 185.84961 76.775391 C 183.83848 81.374476 185.93736 86.727155 190.53125 88.738281 C 211.78353 98.037465 228.35009 112.80737 241.23828 130.83398 C 226.38511 134.00462 199.39066 136.70431 178.62695 121.49219 C 157.63745 106.10993 147.41452 75.802868 148.19922 31.339844 z M 403.27344 153.46484 C 405.66291 153.44794 408.1029 153.46856 410.5918 153.5293 C 410.45668 179.50244 404.89163 229.4074 379.15234 246.21875 C 367.59726 253.7643 352.36026 254.20853 333.74023 247.625 C 353.83984 214.09927 375.11462 201.30742 375.69141 200.9707 C 380.04105 198.50746 381.57851 192.98242 379.13086 188.61719 C 376.66762 184.25715 371.12891 182.68781 366.76367 185.15625 C 365.02191 186.13275 342.18686 199.47711 320.39453 234.04492 C 317.91761 220.28707 316.67353 197.6543 329.73633 180.16211 C 342.78818 162.6963 367.43131 153.71834 403.27344 153.46484 z M 534.05469 291.31641 L 473.00391 430.0625 C 460.62015 458.22865 435.39087 479.50304 405.52539 486.9707 L 393.15234 490.06836 C 392.7522 490.1671 392.36112 490.29266 391.97656 490.44336 L 322.91211 518.06836 C 292.3191 530.3066 257.47537 529.79157 227.26172 516.6543 L 141.33984 479.30078 C 108.51744 465.03062 73.820064 455.98357 38.207031 452.42383 L 18.173828 450.41797 L 18.173828 373.33594 C 27.226492 362.62552 69.323598 317.72499 127.82812 330.70117 C 168.78337 339.811 201.8245 356.87155 222.32031 369.58789 C 240.94531 381.14017 262.71977 387.24609 285.28906 387.24609 L 371.2168 387.24609 C 383.95912 387.24609 394.32617 397.61314 394.32617 410.35547 C 394.32617 423.09779 383.95393 433.4668 371.2168 433.4668 L 251.32812 433.4668 C 233.78404 433.4668 216.45246 436.27734 199.85938 441.80664 L 199.39844 441.95703 L 202.21875 450.58984 L 205.55664 459.06055 C 220.34127 454.13407 235.7432 451.63477 251.32812 451.63477 L 371.2168 451.63477 C 393.97318 451.63477 412.48828 433.11771 412.48828 410.36133 C 412.48828 410.00275 412.48305 409.65416 412.47266 409.30078 L 494.45703 314.81445 C 504.03976 302.04095 518.42299 293.61855 534.05469 291.31641 z "
     transform="matrix(0.75167795,0,0,0.75167795,0,-9.46758)"
     id="path2" />
</svg>
