<?xml version="1.0" encoding="UTF-8" standalone="no"?>
<!-- Generator: Adobe Illustrator 19.0.0, SVG Export Plug-In . SVG Version: 6.00 Build 0)  -->

<svg
   xmlns:dc="http://purl.org/dc/elements/1.1/"
   xmlns:cc="http://creativecommons.org/ns#"
   xmlns:rdf="http://www.w3.org/1999/02/22-rdf-syntax-ns#"
   xmlns:svg="http://www.w3.org/2000/svg"
   xmlns="http://www.w3.org/2000/svg"
   xmlns:sodipodi="http://sodipodi.sourceforge.net/DTD/sodipodi-0.dtd"
   xmlns:inkscape="http://www.inkscape.org/namespaces/inkscape"
   version="1.1"
   id="Capa_1"
   x="0px"
   y="0px"
   viewBox="0 0 368 368"
   style="enable-background:new 0 0 368 368;"
   xml:space="preserve"
   sodipodi:docname="left-arrow.svg"
   inkscape:version="0.92.4 (5da689c313, 2019-01-14)"><metadata
   id="metadata43"><rdf:RDF><cc:Work
       rdf:about=""><dc:format>image/svg+xml</dc:format><dc:type
         rdf:resource="http://purl.org/dc/dcmitype/StillImage" /></cc:Work></rdf:RDF></metadata><defs
   id="defs41" /><sodipodi:namedview
   pagecolor="#ffffff"
   bordercolor="#666666"
   borderopacity="1"
   objecttolerance="10"
   gridtolerance="10"
   guidetolerance="10"
   inkscape:pageopacity="0"
   inkscape:pageshadow="2"
   inkscape:window-width="1680"
   inkscape:window-height="997"
   id="namedview39"
   showgrid="false"
   inkscape:zoom="0.64130435"
   inkscape:cx="156.71186"
   inkscape:cy="184"
   inkscape:window-x="-8"
   inkscape:window-y="22"
   inkscape:window-maximized="1"
   inkscape:current-layer="Capa_1" />
<g
   id="g6">
	<g
   id="g4">
		<path
   d="M352,127.996H176v-72c0-3.072-1.768-5.88-4.528-7.208c-2.784-1.32-6.064-0.96-8.472,0.968l-160,128    c-1.896,1.512-3,3.808-3,6.24s1.104,4.728,3,6.248l160,128c1.448,1.152,3.216,1.752,5,1.752c1.176,0,2.368-0.264,3.472-0.792    c2.76-1.328,4.528-4.136,4.528-7.208v-72h176c8.824,0,16-7.176,16-16v-80C368,135.172,360.824,127.996,352,127.996z M168,223.996    c-4.424,0-8,3.584-8,8v63.352L20.808,183.996L160,72.644v63.352c0,4.416,3.576,8,8,8h184l0.016,80H168z"
   id="path2" />
	</g>
</g>
<g
   id="g8">
</g>
<g
   id="g10">
</g>
<g
   id="g12">
</g>
<g
   id="g14">
</g>
<g
   id="g16">
</g>
<g
   id="g18">
</g>
<g
   id="g20">
</g>
<g
   id="g22">
</g>
<g
   id="g24">
</g>
<g
   id="g26">
</g>
<g
   id="g28">
</g>
<g
   id="g30">
</g>
<g
   id="g32">
</g>
<g
   id="g34">
</g>
<g
   id="g36">
</g>
<path
   style="opacity:1;fill:#00ff00;fill-opacity:1;fill-rule:evenodd;stroke:none;stroke-width:1.36729205;stroke-linejoin:round;stroke-miterlimit:4;stroke-dasharray:none;stroke-dashoffset:0;stroke-opacity:1;paint-order:stroke fill markers"
   d="M 90.674576,239.20368 C 53.582203,209.53307 23.233898,184.69142 23.233898,184 c 0,-0.69142 30.348305,-25.53339 67.440678,-55.20439 l 67.440674,-53.947259 0.77967,32.873939 c 0.71718,30.23976 1.0222,33.05106 3.8065,35.0843 2.53163,1.84873 18.15754,2.21036 95.50848,2.21036 h 92.48163 V 184 222.98305 H 258.2099 c -77.34942,0 -92.9769,0.36166 -95.50848,2.21029 -2.7843,2.03317 -3.08932,4.84443 -3.8065,35.08358 l -0.77967,32.87331 z"
   id="path850"
   inkscape:connector-curvature="0" /></svg>