<?xml version="1.0" encoding="UTF-8" standalone="no"?>
<!-- Generator: Adobe Illustrator 19.0.0, SVG Export Plug-In . SVG Version: 6.00 Build 0)  -->

<svg
   xmlns:dc="http://purl.org/dc/elements/1.1/"
   xmlns:cc="http://creativecommons.org/ns#"
   xmlns:rdf="http://www.w3.org/1999/02/22-rdf-syntax-ns#"
   xmlns:svg="http://www.w3.org/2000/svg"
   xmlns="http://www.w3.org/2000/svg"
   xmlns:sodipodi="http://sodipodi.sourceforge.net/DTD/sodipodi-0.dtd"
   xmlns:inkscape="http://www.inkscape.org/namespaces/inkscape"
   version="1.1"
   id="Layer_1"
   x="0px"
   y="0px"
   viewBox="0 0 512 512"
   style="enable-background:new 0 0 512 512;"
   xml:space="preserve"
   width="512"
   height="512"
   sodipodi:docname="rating.svg"
   inkscape:version="0.92.4 (5da689c313, 2019-01-14)"><metadata
   id="metadata9"><rdf:RDF><cc:Work
       rdf:about=""><dc:format>image/svg+xml</dc:format><dc:type
         rdf:resource="http://purl.org/dc/dcmitype/StillImage" /></cc:Work></rdf:RDF></metadata><defs
   id="defs7" /><sodipodi:namedview
   pagecolor="#ffffff"
   bordercolor="#666666"
   borderopacity="1"
   objecttolerance="10"
   gridtolerance="10"
   guidetolerance="10"
   inkscape:pageopacity="0"
   inkscape:pageshadow="2"
   inkscape:window-width="919"
   inkscape:window-height="603"
   id="namedview5"
   showgrid="false"
   inkscape:zoom="0.4609375"
   inkscape:cx="218.0339"
   inkscape:cy="390.24397"
   inkscape:window-x="0"
   inkscape:window-y="30"
   inkscape:window-maximized="0"
   inkscape:current-layer="Layer_1" />
<path
   d="M 256 0.5 C 193.691 0.5 143 51.191 143 113.5 C 143 148.508 159.00217 179.8478 184.07617 200.5918 C 141.08017 215.6958 103.47791 244.37695 77.378906 283.37695 C 71.235906 292.55695 73.696953 304.97809 82.876953 311.12109 C 86.293953 313.40809 90.157469 314.50195 93.980469 314.50195 C 100.43047 314.50195 106.76409 311.38605 110.62109 305.62305 C 142.93809 257.33105 196.96181 228.5 255.13281 228.5 C 313.13181 228.5 367.0643 257.19853 399.4043 305.26953 C 405.5713 314.43453 417.99811 316.86522 427.16211 310.69922 C 436.32711 304.53322 438.75975 292.10541 432.59375 282.94141 C 406.75475 244.53541 369.70705 216.19711 327.37305 201.03711 C 352.76105 180.29811 369 148.761 369 113.5 C 369 51.191 318.309 0.5 256 0.5 z M 256 40.5 C 296.252 40.5 329 73.248 329 113.5 C 329 153.752 296.252 186.5 256 186.5 C 215.748 186.5 183 153.752 183 113.5 C 183 73.248 215.748 40.5 256 40.5 z M 256.00195 279.5 C 250.92995 279.5 245.85789 282.39459 243.96289 288.18359 L 232.57422 323.21094 C 230.88022 328.38894 226.02111 330.5 220.53711 330.5 L 183.68359 330.5 C 171.42159 330.5 166.32219 347.47486 176.24219 354.63086 L 206.05859 376.13867 C 210.49459 379.33867 212.35125 385.01145 210.65625 390.18945 L 198.66016 424.99219 C 198.15316 426.54119 197.95472 428.056 198.01172 429.5 C 198.38372 438.847 210.15409 445.24097 218.74609 439.04297 L 248.56055 417.52734 C 250.77855 415.92734 253.39095 415.12891 256.00195 415.12891 C 258.61295 415.12891 261.22341 415.92734 263.44141 417.52734 L 293.25586 439.04297 C 301.84786 445.24097 313.56328 438.847 313.98828 429.5 C 314.05328 428.056 313.85856 426.54219 313.35156 424.99219 L 301.34375 390.18945 C 299.64875 385.01145 301.50541 379.33867 305.94141 376.13867 L 335.75781 354.63086 C 345.67781 347.47486 340.57936 330.5 328.31836 330.5 L 291.46484 330.5 C 285.98084 330.5 281.12273 328.38894 279.42773 323.21094 L 268.03906 288.18359 C 266.14406 282.39459 261.07395 279.5 256.00195 279.5 z M 85 349.5 C 79.928 349.5 74.857891 352.39459 72.962891 358.18359 L 61.574219 393.21094 C 59.880219 398.38894 55.019156 400.5 49.535156 400.5 L 12.681641 400.5 C 0.41964063 400.5 -4.6778125 417.47486 5.2421875 424.63086 L 35.058594 446.13867 C 39.494594 449.33867 41.35125 455.01145 39.65625 460.18945 L 27.660156 494.99219 C 27.153156 496.54119 26.952766 498.056 27.009766 499.5 C 27.381766 508.847 39.152141 515.24097 47.744141 509.04297 L 77.560547 487.52734 C 79.778547 485.92734 82.389 485.12891 85 485.12891 C 87.611 485.12891 90.221453 485.92734 92.439453 487.52734 L 122.25586 509.04297 C 130.84786 515.24097 142.56328 508.847 142.98828 499.5 C 143.05328 498.056 142.85856 496.54219 142.35156 494.99219 L 130.34375 460.18945 C 128.64875 455.01145 130.50541 449.33867 134.94141 446.13867 L 164.75781 424.63086 C 174.67781 417.47486 169.58036 400.5 157.31836 400.5 L 120.46484 400.5 C 114.98084 400.5 110.12078 398.38894 108.42578 393.21094 L 97.037109 358.18359 C 95.142109 352.39459 90.072 349.5 85 349.5 z M 427.00195 349.5 C 421.92995 349.5 416.85789 352.39459 414.96289 358.18359 L 403.57422 393.21094 C 401.88022 398.38894 397.02111 400.5 391.53711 400.5 L 354.68359 400.5 C 342.42159 400.5 337.32219 417.47486 347.24219 424.63086 L 377.05859 446.13867 C 381.49459 449.33867 383.35125 455.01145 381.65625 460.18945 L 369.66016 494.99219 C 369.15316 496.54119 368.95472 498.056 369.01172 499.5 C 369.38372 508.847 381.15409 515.24097 389.74609 509.04297 L 419.56055 487.52734 C 421.77855 485.92734 424.39095 485.12891 427.00195 485.12891 C 429.61295 485.12891 432.22341 485.92734 434.44141 487.52734 L 464.25586 509.04297 C 472.84786 515.24097 484.56328 508.847 484.98828 499.5 C 485.05328 498.056 484.85856 496.54219 484.35156 494.99219 L 472.34375 460.18945 C 470.64875 455.01145 472.50541 449.33867 476.94141 446.13867 L 506.75781 424.63086 C 516.67781 417.47486 511.57936 400.5 499.31836 400.5 L 462.46484 400.5 C 456.98084 400.5 452.12273 398.38894 450.42773 393.21094 L 439.03906 358.18359 C 437.14406 352.39459 432.07395 349.5 427.00195 349.5 z "
   id="path2" />















</svg>