<?xml version="1.0" encoding="UTF-8" standalone="no"?>
<!-- Generator: Adobe Illustrator 19.0.0, SVG Export Plug-In . SVG Version: 6.00 Build 0)  -->

<svg
   xmlns:dc="http://purl.org/dc/elements/1.1/"
   xmlns:cc="http://creativecommons.org/ns#"
   xmlns:rdf="http://www.w3.org/1999/02/22-rdf-syntax-ns#"
   xmlns:svg="http://www.w3.org/2000/svg"
   xmlns="http://www.w3.org/2000/svg"
   xmlns:sodipodi="http://sodipodi.sourceforge.net/DTD/sodipodi-0.dtd"
   xmlns:inkscape="http://www.inkscape.org/namespaces/inkscape"
   version="1.1"
   id="Capa_1"
   x="0px"
   y="0px"
   viewBox="0 0 368 368"
   style="enable-background:new 0 0 368 368;"
   xml:space="preserve"
   sodipodi:docname="right_arrow.svg"
   inkscape:version="0.92.4 (5da689c313, 2019-01-14)"><metadata
   id="metadata43"><rdf:RDF><cc:Work
       rdf:about=""><dc:format>image/svg+xml</dc:format><dc:type
         rdf:resource="http://purl.org/dc/dcmitype/StillImage" /></cc:Work></rdf:RDF></metadata><defs
   id="defs41" /><sodipodi:namedview
   pagecolor="#ffffff"
   bordercolor="#666666"
   borderopacity="1"
   objecttolerance="10"
   gridtolerance="10"
   guidetolerance="10"
   inkscape:pageopacity="0"
   inkscape:pageshadow="2"
   inkscape:window-width="1680"
   inkscape:window-height="997"
   id="namedview39"
   showgrid="false"
   inkscape:zoom="0.64130435"
   inkscape:cx="156.71186"
   inkscape:cy="184"
   inkscape:window-x="-8"
   inkscape:window-y="22"
   inkscape:window-maximized="1"
   inkscape:current-layer="Capa_1" />
<g
   id="g6">
	<g
   id="g4">
		<path
   d="M365,177.751l-160-128c-2.408-1.92-5.712-2.288-8.472-0.968c-2.76,1.336-4.528,4.144-4.528,7.216v72H16    c-8.824,0-16,7.176-16,16v80c0,8.824,7.176,16,16,16h176v72c0,3.072,1.768,5.88,4.528,7.208c1.112,0.528,2.296,0.792,3.472,0.792    c1.784,0,3.552-0.6,5-1.752l160-128c1.896-1.52,3-3.816,3-6.248S366.896,179.271,365,177.751z M208,295.351v-63.352    c0-4.416-3.576-8-8-8H16l-0.016-80H16h184c4.424,0,8-3.584,8-8V72.647l139.192,111.352L208,295.351z"
   id="path2" />
	</g>
</g>
<g
   id="g8">
</g>
<g
   id="g10">
</g>
<g
   id="g12">
</g>
<g
   id="g14">
</g>
<g
   id="g16">
</g>
<g
   id="g18">
</g>
<g
   id="g20">
</g>
<g
   id="g22">
</g>
<g
   id="g24">
</g>
<g
   id="g26">
</g>
<g
   id="g28">
</g>
<g
   id="g30">
</g>
<g
   id="g32">
</g>
<g
   id="g34">
</g>
<g
   id="g36">
</g>
<path
   style="opacity:1;fill:#008000;fill-opacity:1;fill-rule:evenodd;stroke:none;stroke-width:1.36729205;stroke-linejoin:round;stroke-miterlimit:4;stroke-dasharray:none;stroke-dashoffset:0;stroke-opacity:1;paint-order:stroke fill markers"
   d="m 208.79322,261.37663 c 0,-30.0772 -0.20164,-32.35793 -3.11864,-35.27494 -3.04876,-3.04875 -5.19774,-3.11864 -95.89831,-3.11864 H 16.99661 V 184 145.01695 h 92.48163 c 77.34942,0 92.9769,-0.36166 95.50847,-2.21029 2.78534,-2.03393 3.08905,-4.84584 3.80651,-35.24315 l 0.77966,-33.03287 68.1394,54.34485 c 37.47665,29.88967 68.14036,54.6957 68.14154,55.12451 0.002,0.73597 -127.34981,102.83149 -133.96056,107.39358 -3.06277,2.11363 -3.10004,1.75285 -3.10004,-30.01695 z"
   id="path4553"
   inkscape:connector-curvature="0" /></svg>