<svg height="372pt" viewBox="0 -47 372.05391 372" width="372pt" xmlns="http://www.w3.org/2000/svg"><path d="m207.882812.0273438c-11.015624 0-22.019531.8007812-32.707031 2.3789062-2.742187.40625-4.964843 2.429688-5.632812 5.113281-21.128907 85.339844-18.59375 159.835938 7.746093 227.742188.917969 2.371093 3.078126 4.03125 5.605469 4.316406 8.230469.914063 16.636719 1.382813 24.988281 1.382813 90.523438 0 164.171876-54.039063 164.171876-120.46875 0-66.425782-73.648438-120.4648442-164.171876-120.4648442zm-26.179687 15.2656252c6.476563-.808594 13.070313-1.210938 19.683594-1.414063v213.28125c-4.300781-.132812-8.597657-.34375-12.851563-.730468-23.449218-62.976563-25.6875-132.128907-6.832031-211.136719zm33.335937 211.886719v-213.371094c79.6875 2.664062 143.363282 49.488281 143.363282 106.683594 0 57.195312-63.675782 104.023437-143.363282 106.6875zm0 0"/><path d="m127.332031 19.6875-122.378906 34.964844c-3.625 1.039062-5.726563 4.820312-4.6875 8.441406.855469 3 3.589844 4.953125 6.558594 4.953125.621093 0 1.253906-.085937 1.882812-.261719l122.378907-34.964844c3.625-1.039062 5.722656-4.820312 4.6875-8.4375-1.039063-3.628906-4.808594-5.703124-8.441407-4.695312zm0 0"/><path d="m127.332031 72.132812-122.378906 34.96875c-3.625 1.039063-5.726563 4.816407-4.6875 8.4375.855469 3 3.589844 4.953126 6.558594 4.953126.621093 0 1.253906-.085938 1.882812-.257813l122.378907-34.96875c3.625-1.039063 5.722656-4.820313 4.6875-8.4375-1.039063-3.628906-4.808594-5.6875-8.441407-4.695313zm0 0"/><path d="m127.332031 124.582031-122.378906 34.964844c-3.625 1.039063-5.726563 4.820313-4.6875 8.441406.855469 3 3.589844 4.953125 6.558594 4.953125.621093 0 1.253906-.089844 1.882812-.261718l122.378907-34.964844c3.625-1.039063 5.722656-4.820313 4.6875-8.441406-1.039063-3.625-4.808594-5.691407-8.441407-4.691407zm0 0"/><path d="m127.332031 177.035156-122.378906 34.957032c-3.625 1.039062-5.726563 4.8125-4.6875 8.441406.855469 3 3.589844 4.953125 6.558594 4.953125.621093 0 1.253906-.089844 1.882812-.261719l122.378907-34.957031c3.625-1.039063 5.722656-4.8125 4.6875-8.441407-1.039063-3.625-4.808594-5.6875-8.441407-4.691406zm0 0"/><path d="m127.332031 229.480469-122.378906 34.96875c-3.625 1.039062-5.726563 4.816406-4.6875 8.4375.855469 3 3.589844 4.953125 6.558594 4.953125.621093 0 1.253906-.085938 1.882812-.257813l122.378907-34.96875c3.625-1.039062 5.722656-4.820312 4.6875-8.4375-1.039063-3.628906-4.808594-5.695312-8.441407-4.695312zm0 0"/></svg>