<svg height="358pt" viewBox="-12 0 358 358.5536" width="358pt" xmlns="http://www.w3.org/2000/svg"><path d="m216.402344 202.945312-.386719-.570312c-2.699219-4.054688-6.097656-7.515625-10.101563-10.292969-3.105468-2.164062-7.359374-1.382812-9.5 1.710938-2.152343 3.101562-1.382812 7.355469 1.714844 9.5 2.585938 1.792969 4.78125 4.03125 6.546875 6.6875l.390625.574219c6.347656 9.523437 16.523438 15.699218 27.910156 16.9375 1.398438.148437 2.796876.226562 4.1875.226562 9.914063 0 19.460938-3.816406 26.691407-10.777344l11.546875-11.121094c4.660156-4.480468 10.789062-6.953124 17.261718-6.953124h35.292969c3.769531 0 6.828125-3.054688 6.828125-6.828126 0-3.773437-3.058594-6.824218-6.828125-6.824218h-35.296875c-10.023437 0-19.523437 3.824218-26.730468 10.773437l-11.546876 11.113281c-5.324218 5.132813-12.605468 7.585938-19.941406 6.820313-7.347656-.800781-13.914062-4.789063-18.039062-10.976563zm0 0"/><path d="m7.101562 198.867188h33.171876c6.648437 0 12.894531 2.585937 17.59375 7.289062l9.664062 9.660156c7.285156 7.285156 17.03125 11.292969 27.210938 11.292969 1.269531 0 2.546874-.0625 3.832031-.1875 11.535156-1.140625 21.839843-7.328125 28.269531-16.972656 1.140625-1.707031 2.488281-3.28125 4.015625-4.660157 2.796875-2.53125 3.007813-6.851562.476563-9.644531-2.53125-2.789062-6.847657-3-9.640626-.472656-2.363281 2.140625-4.449218 4.566406-6.210937 7.207031-4.15625 6.226563-10.808594 10.21875-18.253906 10.960938-7.410157.71875-14.75-1.875-20.042969-7.175782l-9.667969-9.660156c-7.277343-7.277344-16.953125-11.285156-27.246093-11.285156h-33.171876c-3.769531 0-6.824218 3.054688-6.824218 6.828125s3.054687 6.820313 6.824218 6.820313zm0 0"/><path d="m327.957031 245.761719h-35.296875c-10.015625 0-19.511718 3.824219-26.734375 10.777343l-11.539062 11.113282c-5.328125 5.132812-12.609375 7.621094-19.949219 6.8125-7.351562-.800782-13.914062-4.777344-18.019531-10.9375l-.40625-.605469c-2.714844-4.066406-6.113281-7.527344-10.109375-10.292969-3.101563-2.148437-7.355469-1.375-9.496094 1.726563-2.148438 3.097656-1.375 7.351562 1.730469 9.5 2.574219 1.777343 4.765625 4.011719 6.519531 6.644531l.40625.605469c6.347656 9.527343 16.519531 15.703125 27.898438 16.933593 1.402343.15625 2.804687.230469 4.195312.230469 9.917969 0 19.464844-3.8125 26.699219-10.78125l11.542969-11.113281c4.660156-4.488281 10.792968-6.960938 17.261718-6.960938h35.296875c3.769531 0 6.828125-3.050781 6.828125-6.824218 0-3.773438-3.058594-6.828125-6.828125-6.828125zm0 0"/><path d="m131.34375 256.207031c-2.515625-2.800781-6.839844-3.019531-9.640625-.492187-2.359375 2.132812-4.453125 4.550781-6.21875 7.207031-4.15625 6.222656-10.808594 10.21875-18.253906 10.957031-7.457031.695313-14.75-1.878906-20.042969-7.164062l-9.667969-9.667969c-7.277343-7.28125-16.953125-11.285156-27.246093-11.285156h-33.171876c-3.769531 0-6.824218 3.054687-6.824218 6.828125 0 3.773437 3.054687 6.824218 6.824218 6.824218h33.171876c6.648437 0 12.894531 2.589844 17.59375 7.289063l9.667968 9.664063c7.285156 7.28125 17.027344 11.289062 27.203125 11.289062 1.273438 0 2.550781-.0625 3.835938-.1875 11.535156-1.144531 21.839843-7.328125 28.269531-16.972656 1.140625-1.714844 2.488281-3.273438 4.007812-4.648438 2.796876-2.527344 3.019532-6.839844.492188-9.640625zm0 0"/><path d="m184.597656 288.492188v-172.4375h40.960938c3.769531 0 6.824218-3.054688 6.824218-6.828126 0-3.773437-3.054687-6.828124-6.824218-6.828124h-40.960938v-20.476563h40.960938c3.769531 0 6.824218-3.054687 6.824218-6.828125s-3.054687-6.828125-6.824218-6.828125h-40.960938v-20.480469h40.960938c3.769531 0 6.824218-3.050781 6.824218-6.824218 0-3.773438-3.054687-6.828126-6.824218-6.828126h-40.960938v-13c0-11.652343-9.1875-21.132812-20.480468-21.132812-11.292969 0-20.480469 9.480469-20.480469 21.132812v268.386719c-10.351563 7.019531-16.628907 18.628907-16.628907 31.1875 0 20.867188 16.980469 37.847657 37.851563 37.847657s37.851563-16.980469 37.851563-37.847657c0-13.179687-6.984376-25.386719-18.113282-32.214843zm-19.738281 56.40625c-13.339844 0-24.199219-10.851563-24.199219-24.191407 0-8.902343 4.980469-17.058593 12.996094-21.300781 2.234375-1.179688 3.632812-3.507812 3.632812-6.03125v-272.242188c0-4.125 3.066407-7.480468 6.828126-7.480468 3.761718 0 6.828124 3.355468 6.828124 7.480468v271.441407c0 2.664062 1.550782 5.085937 3.972657 6.199219 8.589843 3.953124 14.136719 12.558593 14.136719 21.933593 0 13.339844-10.851563 24.191407-24.195313 24.191407zm0 0"/></svg>